<svg width="274" height="306" viewBox="0 0 274 306" fill="none" xmlns="http://www.w3.org/2000/svg">
<rect width="274" height="306" rx="12" fill="#D9D9D9"/>
<path d="M137 1C158.074 1 175 16.5784 175 35.6084C175 54.6386 158.074 70.2178 137 70.2178C115.926 70.2178 99 54.6386 99 35.6084C99.0002 16.5784 115.926 1 137 1Z" fill="#F2F2F0" stroke="black" stroke-width="2"/>
<path d="M136.602 6.51773V11.6086H135.986V7.16404H135.956L134.713 7.98932V7.3629L135.986 6.51773H136.602ZM138.207 11.6086V11.1612L139.887 9.32171C140.084 9.10628 140.247 8.91901 140.374 8.75992C140.502 8.59917 140.596 8.44837 140.658 8.30751C140.721 8.16499 140.752 8.01584 140.752 7.86006C140.752 7.68109 140.709 7.52614 140.623 7.39522C140.538 7.2643 140.422 7.16321 140.275 7.09195C140.127 7.02069 139.962 6.98506 139.778 6.98506C139.582 6.98506 139.411 7.02566 139.266 7.10687C139.121 7.18641 139.01 7.29827 138.93 7.44245C138.852 7.58663 138.813 7.75566 138.813 7.94955H138.226C138.226 7.65126 138.295 7.38942 138.433 7.16404C138.57 6.93866 138.758 6.763 138.995 6.63705C139.233 6.5111 139.501 6.44813 139.798 6.44813C140.096 6.44813 140.36 6.5111 140.59 6.63705C140.821 6.763 141.001 6.93286 141.132 7.14664C141.263 7.36042 141.329 7.59823 141.329 7.86006C141.329 8.04733 141.295 8.23045 141.227 8.40942C141.161 8.58674 141.045 8.78478 140.879 9.00353C140.715 9.22062 140.487 9.48577 140.195 9.79898L139.052 11.022V11.0618H141.418V11.6086H138.207Z" fill="black"/>
<path d="M137.217 67.0696C137.009 67.0663 136.8 67.0265 136.591 66.9503C136.382 66.8741 136.192 66.7456 136.019 66.565C135.847 66.3827 135.708 66.1366 135.604 65.8267C135.5 65.5152 135.447 65.1241 135.447 64.6534C135.447 64.2027 135.49 63.8033 135.574 63.4553C135.659 63.1056 135.781 62.8114 135.942 62.5728C136.103 62.3325 136.297 62.1502 136.524 62.0259C136.752 61.9016 137.01 61.8395 137.297 61.8395C137.582 61.8395 137.835 61.8967 138.058 62.011C138.281 62.1237 138.464 62.2811 138.604 62.4833C138.745 62.6855 138.836 62.9183 138.878 63.1818H138.271C138.215 62.9531 138.106 62.7634 137.943 62.6126C137.781 62.4618 137.565 62.3864 137.297 62.3864C136.902 62.3864 136.592 62.5579 136.365 62.9009C136.139 63.244 136.026 63.7254 136.024 64.3452H136.064C136.157 64.2043 136.267 64.0842 136.395 63.9847C136.524 63.8836 136.666 63.8058 136.822 63.7511C136.978 63.6964 137.143 63.669 137.317 63.669C137.608 63.669 137.875 63.742 138.117 63.8878C138.359 64.032 138.553 64.2317 138.699 64.4869C138.845 64.7404 138.918 65.0312 138.918 65.3594C138.918 65.6742 138.847 65.9626 138.706 66.2244C138.565 66.4846 138.367 66.6918 138.112 66.8459C137.859 66.9983 137.56 67.0729 137.217 67.0696ZM137.217 66.5227C137.426 66.5227 137.613 66.4705 137.779 66.3661C137.946 66.2617 138.078 66.1217 138.174 65.946C138.272 65.7704 138.321 65.5748 138.321 65.3594C138.321 65.1489 138.274 64.9575 138.179 64.7852C138.087 64.6112 137.958 64.4728 137.794 64.37C137.632 64.2673 137.446 64.2159 137.237 64.2159C137.08 64.2159 136.933 64.2474 136.797 64.3104C136.661 64.3717 136.542 64.4562 136.439 64.5639C136.338 64.6716 136.259 64.7951 136.201 64.9343C136.143 65.0719 136.114 65.2169 136.114 65.3693C136.114 65.5715 136.161 65.7604 136.255 65.9361C136.351 66.1117 136.482 66.2534 136.648 66.3612C136.815 66.4689 137.005 66.5227 137.217 66.5227Z" fill="black"/>
<path d="M117.686 63L119.963 58.4957V58.456H117.338V57.9091H120.599V58.4858L118.332 63H117.686Z" fill="black"/>
<path d="M109.158 53.0696C108.816 53.0696 108.515 53.0091 108.253 52.8881C107.993 52.7655 107.79 52.5973 107.644 52.3835C107.498 52.1681 107.426 51.9228 107.428 51.6477C107.426 51.4323 107.468 51.2334 107.554 51.0511C107.641 50.8672 107.758 50.7139 107.907 50.5913C108.058 50.467 108.226 50.3883 108.412 50.3551V50.3253C108.168 50.2623 107.974 50.1256 107.83 49.9151C107.686 49.703 107.615 49.4619 107.616 49.1918C107.615 48.9332 107.68 48.7021 107.813 48.4982C107.945 48.2944 108.128 48.1336 108.36 48.016C108.593 47.8983 108.859 47.8395 109.158 47.8395C109.453 47.8395 109.716 47.8983 109.948 48.016C110.18 48.1336 110.362 48.2944 110.495 48.4982C110.629 48.7021 110.697 48.9332 110.699 49.1918C110.697 49.4619 110.623 49.703 110.478 49.9151C110.333 50.1256 110.142 50.2623 109.903 50.3253V50.3551C110.087 50.3883 110.253 50.467 110.401 50.5913C110.548 50.7139 110.666 50.8672 110.754 51.0511C110.841 51.2334 110.886 51.4323 110.888 51.6477C110.886 51.9228 110.812 52.1681 110.664 52.3835C110.518 52.5973 110.315 52.7655 110.055 52.8881C109.797 53.0091 109.497 53.0696 109.158 53.0696ZM109.158 52.5227C109.388 52.5227 109.587 52.4854 109.754 52.4109C109.922 52.3363 110.051 52.2311 110.142 52.0952C110.233 51.9593 110.28 51.8002 110.281 51.6179C110.28 51.4257 110.23 51.2558 110.132 51.1083C110.034 50.9608 109.901 50.8448 109.732 50.7603C109.565 50.6758 109.373 50.6335 109.158 50.6335C108.941 50.6335 108.747 50.6758 108.576 50.7603C108.407 50.8448 108.274 50.9608 108.176 51.1083C108.08 51.2558 108.032 51.4257 108.034 51.6179C108.032 51.8002 108.076 51.9593 108.166 52.0952C108.257 52.2311 108.387 52.3363 108.556 52.4109C108.725 52.4854 108.926 52.5227 109.158 52.5227ZM109.158 50.1065C109.34 50.1065 109.502 50.0701 109.642 49.9972C109.785 49.9242 109.897 49.8223 109.978 49.6914C110.059 49.5605 110.101 49.4072 110.102 49.2315C110.101 49.0592 110.06 48.9092 109.98 48.7816C109.901 48.6523 109.791 48.5529 109.65 48.4833C109.509 48.4121 109.345 48.3764 109.158 48.3764C108.967 48.3764 108.801 48.4121 108.658 48.4833C108.516 48.5529 108.405 48.6523 108.327 48.7816C108.25 48.9092 108.211 49.0592 108.213 49.2315C108.211 49.4072 108.25 49.5605 108.33 49.6914C108.411 49.8223 108.523 49.9242 108.665 49.9972C108.808 50.0701 108.972 50.1065 109.158 50.1065Z" fill="black"/>
<path d="M104.148 34.8395C104.357 34.8411 104.565 34.8809 104.774 34.9588C104.983 35.0367 105.174 35.166 105.346 35.3466C105.518 35.5256 105.657 35.77 105.761 36.0799C105.865 36.3898 105.918 36.7784 105.918 37.2457C105.918 37.6982 105.875 38.1 105.788 38.4513C105.704 38.801 105.581 39.096 105.42 39.3363C105.261 39.5766 105.067 39.7589 104.839 39.8832C104.612 40.0075 104.355 40.0696 104.068 40.0696C103.783 40.0696 103.529 40.0133 103.305 39.9006C103.083 39.7862 102.901 39.628 102.758 39.4258C102.617 39.2219 102.527 38.9858 102.487 38.7173H103.094C103.148 38.951 103.257 39.1441 103.419 39.2965C103.583 39.4473 103.8 39.5227 104.068 39.5227C104.461 39.5227 104.771 39.3512 104.998 39.0082C105.227 38.6651 105.341 38.1804 105.341 37.554H105.301C105.208 37.6932 105.098 37.8133 104.971 37.9144C104.843 38.0155 104.701 38.0934 104.545 38.1481C104.39 38.2028 104.224 38.2301 104.048 38.2301C103.757 38.2301 103.489 38.158 103.245 38.0138C103.003 37.868 102.81 37.6683 102.664 37.4148C102.52 37.1596 102.447 36.8679 102.447 36.5398C102.447 36.2282 102.517 35.9432 102.656 35.6847C102.797 35.4245 102.994 35.2173 103.248 35.0632C103.503 34.9091 103.803 34.8345 104.148 34.8395ZM104.148 35.3864C103.939 35.3864 103.751 35.4386 103.583 35.543C103.418 35.6457 103.286 35.7849 103.188 35.9606C103.092 36.1346 103.044 36.3277 103.044 36.5398C103.044 36.7519 103.09 36.945 103.183 37.119C103.278 37.2913 103.406 37.4289 103.569 37.5316C103.733 37.6327 103.919 37.6832 104.128 37.6832C104.285 37.6832 104.432 37.6526 104.568 37.5913C104.704 37.5283 104.822 37.4429 104.923 37.3352C105.026 37.2259 105.106 37.1024 105.164 36.9648C105.222 36.8256 105.251 36.6806 105.251 36.5298C105.251 36.331 105.203 36.1445 105.107 35.9705C105.013 35.7965 104.882 35.6557 104.714 35.5479C104.549 35.4402 104.36 35.3864 104.148 35.3864Z" fill="black"/>
<path d="M157.602 10.5177V15.6086H156.986V11.164H156.956L155.713 11.9893V11.3629L156.986 10.5177H157.602Z" fill="black"/>
<path d="M117.317 9.90909V15H116.7V10.5554H116.67L115.428 11.3807V10.7543L116.7 9.90909H117.317ZM120.711 9.90909V15H120.094V10.5554H120.064L118.821 11.3807V10.7543L120.094 9.90909H120.711Z" fill="black"/>
<path d="M106.602 21.5177V26.6086H105.986V22.164H105.956L104.713 22.9893V22.3629L105.986 21.5177H106.602ZM109.867 26.6782C109.493 26.6782 109.174 26.5763 108.91 26.3725C108.647 26.167 108.445 25.8695 108.306 25.4801C108.167 25.089 108.097 24.6167 108.097 24.0632C108.097 23.513 108.167 23.0432 108.306 22.6537C108.447 22.2626 108.649 21.9643 108.913 21.7589C109.178 21.5517 109.496 21.4481 109.867 21.4481C110.238 21.4481 110.556 21.5517 110.819 21.7589C111.084 21.9643 111.287 22.2626 111.426 22.6537C111.567 23.0432 111.637 23.513 111.637 24.0632C111.637 24.6167 111.567 25.089 111.428 25.4801C111.289 25.8695 111.088 26.167 110.824 26.3725C110.561 26.5763 110.242 26.6782 109.867 26.6782ZM109.867 26.1314C110.238 26.1314 110.527 25.9524 110.732 25.5944C110.938 25.2365 111.04 24.7261 111.04 24.0632C111.04 23.6224 110.993 23.247 110.899 22.9371C110.806 22.6272 110.672 22.3911 110.496 22.2287C110.322 22.0663 110.112 21.9851 109.867 21.9851C109.499 21.9851 109.212 22.1665 109.005 22.5295C108.797 22.8907 108.694 23.402 108.694 24.0632C108.694 24.504 108.74 24.8785 108.833 25.1868C108.926 25.495 109.059 25.7295 109.233 25.8902C109.409 26.051 109.62 26.1314 109.867 26.1314Z" fill="black"/>
<path d="M165.813 25.6086V25.1612L167.493 23.3217C167.69 23.1063 167.853 22.919 167.98 22.7599C168.108 22.5992 168.202 22.4484 168.264 22.3075C168.327 22.165 168.358 22.0158 168.358 21.8601C168.358 21.6811 168.315 21.5261 168.229 21.3952C168.144 21.2643 168.028 21.1632 167.881 21.092C167.733 21.0207 167.568 20.9851 167.384 20.9851C167.188 20.9851 167.017 21.0257 166.872 21.1069C166.727 21.1864 166.616 21.2983 166.536 21.4424C166.458 21.5866 166.419 21.7557 166.419 21.9496H165.833C165.833 21.6513 165.901 21.3894 166.039 21.164C166.176 20.9387 166.364 20.763 166.601 20.6371C166.839 20.5111 167.107 20.4481 167.404 20.4481C167.702 20.4481 167.966 20.5111 168.197 20.6371C168.427 20.763 168.608 20.9329 168.738 21.1466C168.869 21.3604 168.935 21.5982 168.935 21.8601C168.935 22.0473 168.901 22.2304 168.833 22.4094C168.767 22.5867 168.651 22.7848 168.485 23.0035C168.321 23.2206 168.093 23.4858 167.801 23.799L166.658 25.022V25.0618H169.024V25.6086H165.813Z" fill="black"/>
<path d="M170.247 40.0696C169.919 40.0696 169.627 40.0133 169.37 39.9006C169.114 39.7879 168.911 39.6313 168.761 39.4308C168.612 39.2286 168.53 38.9941 168.517 38.7273H169.143C169.157 38.8913 169.213 39.033 169.312 39.1523C169.412 39.27 169.542 39.3612 169.703 39.4258C169.864 39.4904 170.042 39.5227 170.237 39.5227C170.456 39.5227 170.65 39.4846 170.819 39.4084C170.988 39.3321 171.121 39.2261 171.217 39.0902C171.313 38.9543 171.361 38.7969 171.361 38.6179C171.361 38.4306 171.314 38.2657 171.222 38.1232C171.129 37.979 170.993 37.8664 170.814 37.7852C170.635 37.704 170.416 37.6634 170.158 37.6634H169.75V37.1165H170.158C170.36 37.1165 170.537 37.08 170.69 37.0071C170.844 36.9342 170.964 36.8314 171.05 36.6989C171.138 36.5663 171.182 36.4105 171.182 36.2315C171.182 36.0592 171.144 35.9092 171.067 35.7816C170.991 35.654 170.884 35.5546 170.744 35.4833C170.607 35.4121 170.444 35.3764 170.257 35.3764C170.081 35.3764 169.916 35.4087 169.76 35.4734C169.606 35.5363 169.48 35.6283 169.382 35.7493C169.284 35.8686 169.231 36.0128 169.223 36.1818H168.626C168.636 35.915 168.717 35.6813 168.868 35.4808C169.018 35.2786 169.216 35.1212 169.459 35.0085C169.704 34.8958 169.974 34.8395 170.267 34.8395C170.582 34.8395 170.852 34.9033 171.077 35.0309C171.303 35.1568 171.476 35.3234 171.597 35.5305C171.718 35.7377 171.778 35.9614 171.778 36.2017C171.778 36.4884 171.703 36.7328 171.552 36.935C171.403 37.1372 171.2 37.2772 170.943 37.3551V37.3949C171.265 37.4479 171.516 37.5846 171.696 37.805C171.877 38.0238 171.967 38.2947 171.967 38.6179C171.967 38.8946 171.892 39.1432 171.741 39.3636C171.592 39.5824 171.388 39.7547 171.13 39.8807C170.871 40.0066 170.577 40.0696 170.247 40.0696Z" fill="black"/>
<path d="M163.408 51.956V51.4489L165.645 47.9091H166.013V48.6946H165.764L164.074 51.3693V51.4091H167.087V51.956H163.408ZM165.804 53V51.8018V51.5657V47.9091H166.391V53H165.804Z" fill="black"/>
<path d="M155.118 63.0696C154.826 63.0696 154.564 63.0116 154.33 62.8956C154.096 62.7796 153.909 62.6205 153.768 62.4183C153.627 62.2161 153.55 61.9858 153.537 61.7273H154.134C154.157 61.9576 154.261 62.1482 154.447 62.299C154.634 62.4482 154.858 62.5227 155.118 62.5227C155.327 62.5227 155.512 62.4738 155.675 62.3761C155.839 62.2783 155.967 62.1441 156.06 61.9734C156.154 61.801 156.202 61.6063 156.202 61.3892C156.202 61.1671 156.153 60.9691 156.055 60.7951C155.959 60.6194 155.826 60.4811 155.657 60.38C155.488 60.2789 155.295 60.2275 155.078 60.2259C154.922 60.2242 154.762 60.2482 154.598 60.2979C154.434 60.346 154.299 60.4081 154.193 60.4844L153.616 60.4148L153.925 57.9091H156.57V58.456H154.442L154.263 59.9574H154.293C154.397 59.8745 154.528 59.8058 154.685 59.7511C154.843 59.6964 155.007 59.669 155.178 59.669C155.489 59.669 155.767 59.7436 156.01 59.8928C156.256 60.0402 156.448 60.2424 156.587 60.4993C156.728 60.7562 156.798 61.0495 156.798 61.3793C156.798 61.7041 156.725 61.9941 156.58 62.2493C156.435 62.5028 156.237 62.7034 155.983 62.8509C155.729 62.9967 155.441 63.0696 155.118 63.0696Z" fill="black"/>
<path d="M124 28.6304L137 41.3478L152.786 21" stroke="black" stroke-width="2"/>
<rect x="0.732758" y="1.17494" width="94.0905" height="114.001" rx="1" transform="matrix(0.978629 0.205636 -0.245871 0.969303 127.166 87.1028)" fill="#D9D9D9" stroke="black" stroke-width="2"/>
<path d="M149.828 109.822C149.733 110.167 149.504 110.298 149.14 110.216C148.963 110.176 148.835 110.1 148.755 109.989C148.675 109.878 148.658 109.737 148.705 109.567L149.578 106.378C149.745 105.771 150 105.342 150.345 105.092C150.696 104.838 151.129 104.77 151.643 104.887C152.023 104.973 152.316 105.121 152.523 105.332C152.73 105.543 152.836 105.802 152.84 106.11C153.002 105.84 153.229 105.657 153.521 105.559C153.813 105.461 154.154 105.456 154.544 105.545C155.074 105.665 155.425 105.906 155.596 106.268C155.769 106.624 155.769 107.116 155.597 107.744L154.745 110.856C154.687 111.067 154.604 111.209 154.495 111.283C154.387 111.357 154.234 111.372 154.036 111.327C153.839 111.282 153.706 111.203 153.638 111.089C153.571 110.97 153.566 110.807 153.622 110.601L154.492 107.428C154.631 106.918 154.48 106.613 154.038 106.513C153.815 106.462 153.628 106.499 153.478 106.623C153.329 106.743 153.211 106.962 153.124 107.281L152.318 110.223C152.26 110.434 152.177 110.577 152.068 110.651C151.96 110.724 151.807 110.739 151.609 110.694C151.412 110.649 151.279 110.57 151.211 110.456C151.144 110.337 151.139 110.174 151.195 109.968L152.001 107.026C152.169 106.414 152.032 106.057 151.59 105.957C151.148 105.857 150.858 106.062 150.718 106.571L149.828 109.822ZM157.532 112.12C157.012 112.002 156.627 111.824 156.377 111.587C156.133 111.351 155.989 111.07 155.946 110.743C155.909 110.417 155.943 110.062 156.048 109.675C156.243 108.965 156.541 108.491 156.943 108.254C157.346 108.012 157.815 107.952 158.35 108.074C158.673 108.147 158.944 108.266 159.164 108.43C159.383 108.595 159.536 108.794 159.621 109.026C159.708 109.254 159.713 109.509 159.635 109.792C159.41 110.616 158.704 110.893 157.519 110.624L157.067 110.522C157.065 110.691 157.098 110.832 157.166 110.946C157.241 111.056 157.4 111.139 157.645 111.194C157.78 111.225 157.891 111.242 157.978 111.245C158.066 111.249 158.148 111.251 158.225 111.252C158.307 111.254 158.398 111.267 158.496 111.289C158.637 111.321 158.741 111.372 158.81 111.442C158.881 111.508 158.896 111.615 158.855 111.764C158.797 111.975 158.66 112.111 158.445 112.171C158.236 112.228 157.932 112.211 157.532 112.12ZM157.169 109.938C157.226 109.891 157.283 109.865 157.339 109.862C157.396 109.853 157.48 109.861 157.589 109.886C157.896 109.955 158.114 109.975 158.244 109.944C158.38 109.909 158.47 109.815 158.512 109.66C158.565 109.465 158.552 109.303 158.471 109.175C158.391 109.042 158.268 108.957 158.102 108.919C157.91 108.876 157.737 108.921 157.584 109.056C157.431 109.191 157.293 109.485 157.169 109.938ZM161.425 113.003C160.941 112.894 160.614 112.699 160.442 112.419C160.275 112.141 160.256 111.768 160.384 111.299L160.824 109.693L160.622 109.647C160.268 109.567 160.135 109.37 160.221 109.056C160.305 108.747 160.524 108.633 160.878 108.713L161.08 108.759L161.309 107.925C161.355 107.755 161.445 107.628 161.579 107.543C161.718 107.46 161.873 107.438 162.044 107.477C162.211 107.514 162.329 107.596 162.4 107.721C162.472 107.841 162.484 107.989 162.436 108.164L162.332 108.542C162.28 108.733 162.206 108.883 162.109 108.992L162.85 109.16C163.204 109.241 163.338 109.435 163.253 109.744C163.167 110.058 162.948 110.175 162.594 110.095L161.947 109.948L161.501 111.577C161.458 111.732 161.446 111.846 161.464 111.922C161.484 111.992 161.535 112.036 161.618 112.055C161.727 112.08 161.81 112.09 161.866 112.087C161.929 112.079 162.002 112.085 162.085 112.103C162.226 112.135 162.33 112.186 162.399 112.257C162.47 112.322 162.485 112.429 162.444 112.578C162.386 112.79 162.275 112.931 162.112 113.004C161.95 113.071 161.721 113.071 161.425 113.003ZM165.001 113.815C164.481 113.697 164.096 113.519 163.846 113.282C163.602 113.046 163.458 112.765 163.415 112.438C163.377 112.112 163.411 111.756 163.517 111.37C163.712 110.66 164.01 110.186 164.411 109.949C164.815 109.707 165.284 109.647 165.819 109.768C166.141 109.842 166.412 109.961 166.632 110.125C166.852 110.29 167.005 110.489 167.09 110.721C167.177 110.949 167.181 111.204 167.104 111.487C166.878 112.311 166.173 112.588 164.988 112.319L164.536 112.217C164.534 112.386 164.567 112.527 164.635 112.641C164.71 112.751 164.869 112.834 165.113 112.889C165.248 112.92 165.36 112.937 165.447 112.94C165.535 112.944 165.617 112.946 165.694 112.947C165.776 112.949 165.866 112.961 165.965 112.984C166.105 113.016 166.21 113.067 166.279 113.137C166.35 113.202 166.365 113.31 166.324 113.459C166.266 113.67 166.129 113.806 165.914 113.866C165.705 113.923 165.401 113.906 165.001 113.815ZM164.638 111.633C164.695 111.586 164.751 111.56 164.808 111.557C164.865 111.548 164.949 111.556 165.058 111.581C165.364 111.65 165.583 111.67 165.713 111.639C165.849 111.604 165.938 111.51 165.981 111.355C166.034 111.16 166.021 110.998 165.94 110.87C165.86 110.737 165.737 110.652 165.571 110.614C165.379 110.571 165.206 110.616 165.053 110.751C164.9 110.886 164.762 111.18 164.638 111.633ZM168.829 114.684C168.272 114.557 167.876 114.301 167.64 113.913C167.404 113.526 167.382 112.983 167.573 112.283C167.767 111.577 168.067 111.107 168.473 110.871C168.882 110.63 169.364 110.573 169.92 110.699C170.476 110.825 170.872 111.082 171.109 111.469C171.346 111.851 171.369 112.395 171.175 113.1C170.984 113.8 170.683 114.271 170.275 114.511C169.867 114.752 169.385 114.81 168.829 114.684ZM169.082 113.757C169.228 113.79 169.358 113.789 169.472 113.755C169.588 113.716 169.693 113.625 169.787 113.482C169.887 113.341 169.975 113.128 170.053 112.845C170.13 112.562 170.162 112.337 170.147 112.169C170.137 112.003 170.091 111.881 170.007 111.802C169.925 111.717 169.812 111.659 169.666 111.626C169.526 111.594 169.395 111.597 169.274 111.635C169.16 111.669 169.053 111.757 168.954 111.899C168.86 112.041 168.774 112.254 168.696 112.537C168.618 112.821 168.585 113.045 168.594 113.211C168.609 113.379 168.657 113.505 168.739 113.589C168.828 113.669 168.942 113.725 169.082 113.757ZM172.097 115.425C171.723 115.34 171.584 115.123 171.68 114.773L172.481 111.846C172.579 111.491 172.814 111.356 173.189 111.441C173.376 111.483 173.5 111.555 173.56 111.656C173.622 111.752 173.628 111.891 173.579 112.071C173.719 111.922 173.886 111.826 174.08 111.783C174.281 111.735 174.498 111.738 174.732 111.791C175.179 111.893 175.35 112.136 175.244 112.522C175.205 112.667 175.12 112.762 174.992 112.81C174.863 112.857 174.673 112.852 174.424 112.796C174.18 112.74 173.981 112.72 173.828 112.734C173.676 112.743 173.556 112.801 173.466 112.906C173.383 113.008 173.312 113.167 173.253 113.383L172.802 115.028C172.706 115.378 172.471 115.51 172.097 115.425ZM176.313 116.382C175.756 116.256 175.36 115.999 175.124 115.612C174.888 115.225 174.866 114.681 175.057 113.981C175.251 113.276 175.551 112.805 175.957 112.569C176.366 112.329 176.848 112.271 177.404 112.397C177.96 112.524 178.356 112.78 178.593 113.167C178.83 113.549 178.853 114.093 178.659 114.798C178.468 115.498 178.168 115.969 177.759 116.21C177.351 116.451 176.869 116.508 176.313 116.382ZM176.566 115.455C176.712 115.488 176.842 115.488 176.956 115.453C177.072 115.414 177.177 115.323 177.271 115.18C177.371 115.039 177.459 114.827 177.537 114.544C177.614 114.26 177.646 114.035 177.631 113.868C177.621 113.702 177.575 113.579 177.491 113.5C177.409 113.416 177.296 113.357 177.15 113.324C177.01 113.292 176.879 113.295 176.758 113.334C176.644 113.368 176.537 113.456 176.438 113.597C176.344 113.74 176.258 113.953 176.18 114.236C176.102 114.519 176.069 114.744 176.078 114.91C176.093 115.077 176.141 115.203 176.223 115.287C176.312 115.367 176.426 115.423 176.566 115.455ZM180.292 116.735C180.198 117.08 179.969 117.212 179.605 117.129C179.428 117.089 179.3 117.013 179.22 116.902C179.14 116.791 179.123 116.651 179.17 116.481L180.492 111.655C180.543 111.469 180.624 111.332 180.737 111.243C180.855 111.155 181.016 111.134 181.218 111.18C181.421 111.226 181.549 111.312 181.603 111.439C181.661 111.567 181.665 111.724 181.615 111.909L180.292 116.735ZM182.868 117.869C182.312 117.743 181.915 117.487 181.679 117.099C181.443 116.712 181.421 116.169 181.612 115.468C181.806 114.763 182.106 114.293 182.513 114.057C182.921 113.816 183.403 113.759 183.959 113.885C184.515 114.011 184.912 114.268 185.148 114.655C185.385 115.037 185.408 115.581 185.214 116.286C185.023 116.986 184.723 117.456 184.314 117.697C183.906 117.938 183.424 117.996 182.868 117.869ZM183.122 116.943C183.267 116.976 183.397 116.975 183.511 116.941C183.627 116.902 183.732 116.811 183.826 116.668C183.926 116.527 184.014 116.314 184.092 116.031C184.169 115.748 184.201 115.523 184.186 115.355C184.176 115.189 184.13 115.066 184.046 114.987C183.965 114.903 183.851 114.845 183.705 114.812C183.565 114.78 183.434 114.783 183.314 114.821C183.199 114.855 183.092 114.943 182.993 115.085C182.899 115.227 182.813 115.44 182.735 115.723C182.658 116.006 182.624 116.231 182.633 116.397C182.648 116.565 182.697 116.69 182.778 116.775C182.867 116.855 182.981 116.911 183.122 116.943ZM188.861 119.664C188.742 120.102 188.444 120.382 187.969 120.503C187.494 120.625 186.869 120.598 186.095 120.423C185.695 120.332 185.415 120.214 185.256 120.068C185.101 119.929 185.052 119.754 185.11 119.543C185.151 119.394 185.22 119.303 185.317 119.27C185.413 119.243 185.531 119.245 185.672 119.277C185.776 119.3 185.863 119.325 185.933 119.352C186.001 119.384 186.076 119.415 186.156 119.444C186.24 119.479 186.347 119.512 186.477 119.541C186.888 119.635 187.19 119.67 187.383 119.649C187.582 119.628 187.708 119.523 187.76 119.332C187.804 119.173 187.774 119.029 187.671 118.902C187.568 118.775 187.417 118.689 187.22 118.644C186.024 118.372 185.599 117.606 185.945 116.345C186.121 115.702 186.402 115.26 186.788 115.019C187.174 114.779 187.666 114.726 188.264 114.862C188.659 114.951 188.968 115.093 189.191 115.286C189.443 114.851 189.772 114.679 190.177 114.771C190.375 114.816 190.511 114.902 190.587 115.028C190.669 115.151 190.684 115.307 190.632 115.498C190.584 115.673 190.498 115.787 190.373 115.841C190.248 115.894 190.071 115.895 189.842 115.843C189.743 115.821 189.65 115.808 189.563 115.804C189.702 116.164 189.696 116.619 189.545 117.17C189.45 117.515 189.32 117.789 189.154 117.992C188.993 118.196 188.757 118.342 188.446 118.43C188.681 118.582 188.823 118.767 188.873 118.986C188.93 119.201 188.926 119.427 188.861 119.664ZM187.068 116.6C186.891 117.243 187.029 117.616 187.481 117.719C187.934 117.822 188.248 117.551 188.424 116.908C188.516 116.573 188.526 116.315 188.454 116.135C188.387 115.956 188.239 115.84 188.01 115.788C187.787 115.738 187.597 115.777 187.44 115.905C187.283 116.034 187.159 116.265 187.068 116.6ZM190.288 121.374C189.566 121.21 189.261 120.922 189.374 120.51C189.415 120.361 189.484 120.27 189.581 120.238C189.677 120.21 189.795 120.212 189.935 120.244C190.081 120.277 190.205 120.316 190.309 120.362C190.411 120.412 190.53 120.453 190.665 120.484C190.815 120.518 190.927 120.524 190.999 120.502C191.071 120.48 191.121 120.42 191.148 120.322C191.165 120.261 191.173 120.178 191.174 120.074C191.175 119.971 191.163 119.815 191.137 119.606C191.116 119.399 191.082 119.113 191.033 118.746L190.699 116.185C190.689 116.101 190.696 116.015 190.72 115.928C190.768 115.753 190.868 115.641 191.019 115.594C191.171 115.541 191.318 115.53 191.458 115.562C191.588 115.592 191.683 115.649 191.742 115.733C191.809 115.814 191.846 115.91 191.854 116.021L192.143 118.744C192.449 118.392 192.672 118.082 192.812 117.813C192.957 117.545 193.057 117.292 193.112 117.053C193.147 116.902 193.17 116.779 193.18 116.683C193.196 116.583 193.205 116.519 193.207 116.492C193.232 116.323 193.315 116.21 193.457 116.155C193.606 116.096 193.763 116.085 193.93 116.123C194.08 116.157 194.185 116.216 194.245 116.301C194.311 116.382 194.347 116.483 194.352 116.604C194.356 116.693 194.345 116.791 194.321 116.901C194.303 117.006 194.285 117.092 194.267 117.159C194.193 117.427 194.093 117.694 193.965 117.96C193.842 118.227 193.7 118.474 193.538 118.7C193.384 118.922 193.214 119.107 193.03 119.257C193.002 119.278 192.949 119.32 192.87 119.385C192.797 119.45 192.711 119.513 192.612 119.572C192.514 119.626 192.42 119.66 192.328 119.672C192.391 119.784 192.42 119.92 192.416 120.077C192.41 120.24 192.384 120.403 192.339 120.568C192.243 120.918 192.027 121.173 191.691 121.332C191.359 121.497 190.891 121.511 190.288 121.374Z" fill="black"/>
<line y1="-1" x2="65.9672" y2="-1" transform="matrix(0.971838 0.231005 -0.276165 0.962444 133.95 120.524)" stroke="black" stroke-width="2"/>
<line y1="-1" x2="65.9672" y2="-1" transform="matrix(0.971838 0.231005 -0.276165 0.962444 130.119 135.628)" stroke="black" stroke-width="2"/>
<line y1="-1" x2="65.9672" y2="-1" transform="matrix(0.971838 0.231005 -0.276165 0.962444 126.287 150.732)" stroke="black" stroke-width="2"/>
<line y1="-1" x2="65.9672" y2="-1" transform="matrix(0.971838 0.231005 -0.276165 0.962444 122.456 165.836)" stroke="black" stroke-width="2"/>
<line y1="-1" x2="65.9672" y2="-1" transform="matrix(0.971838 0.231005 -0.276165 0.962444 118.625 180.94)" stroke="black" stroke-width="2"/>
<rect x="35" y="131.276" width="94.5104" height="113.397" rx="1" fill="#D9D9D9" stroke="black" stroke-width="2"/>
<path d="M63.7735 146.771C63.7667 147.128 63.5766 147.304 63.2033 147.298C63.022 147.295 62.8789 147.247 62.774 147.155C62.6691 147.062 62.6183 146.928 62.6217 146.752L62.6824 143.585C62.6965 142.849 62.8559 142.326 63.1606 142.016C63.4652 141.706 63.9349 141.557 64.5695 141.567C65.22 141.577 65.6969 141.745 66.0001 142.069C66.3032 142.394 66.4479 142.919 66.434 143.645L66.3732 146.812C66.3664 147.169 66.1763 147.345 65.803 147.339C65.6217 147.336 65.4786 147.288 65.3737 147.196C65.2687 147.104 65.218 146.97 65.2214 146.794L65.2583 144.866C65.1553 144.955 65.0418 145.031 64.9179 145.093C64.7994 145.155 64.6601 145.185 64.5001 145.182C64.2655 145.178 64.0887 145.218 63.9697 145.302C63.8561 145.385 63.7972 145.536 63.793 145.755L63.7735 146.771ZM63.7705 144.426C63.8574 144.342 63.96 144.277 64.0783 144.231C64.2019 144.185 64.349 144.163 64.5196 144.166C64.7222 144.169 64.8772 144.156 64.9845 144.126C65.0971 144.095 65.1756 144.035 65.22 143.945C65.2644 143.855 65.2883 143.722 65.2916 143.546C65.2992 143.152 65.2484 142.882 65.1391 142.736C65.03 142.585 64.8315 142.507 64.5435 142.502C64.2769 142.498 64.0914 142.573 63.9871 142.726C63.8883 142.873 63.835 143.15 63.8272 143.555C63.8232 143.763 63.8172 143.939 63.8091 144.083C63.801 144.227 63.7881 144.341 63.7705 144.426ZM68.7848 147.386C67.7823 147.37 67.2852 147.141 67.2937 146.699C67.2964 146.56 67.3358 146.451 67.412 146.372C67.4882 146.294 67.5876 146.255 67.7103 146.257C67.7636 146.258 67.8141 146.267 67.8618 146.284C67.9149 146.295 68.0157 146.326 68.1641 146.376C68.2276 146.399 68.3126 146.421 68.4188 146.444C68.525 146.467 68.6288 146.48 68.7302 146.481C68.9221 146.484 69.0586 146.463 69.1395 146.416C69.2204 146.369 69.2619 146.29 69.2641 146.178C69.2658 146.087 69.2458 146.017 69.2041 145.969C69.1624 145.915 69.0727 145.863 68.935 145.813C68.7973 145.762 68.5826 145.692 68.2909 145.602C68.0257 145.523 67.8123 145.387 67.6507 145.192C67.4945 144.992 67.4191 144.748 67.4247 144.46C67.4324 144.055 67.585 143.748 67.8824 143.54C68.1798 143.331 68.5845 143.231 69.0964 143.239C69.4803 143.245 69.7806 143.303 69.9972 143.413C70.2138 143.523 70.3202 143.68 70.3163 143.882C70.3138 144.01 70.2744 144.116 70.1982 144.2C70.1219 144.285 70.0197 144.326 69.8917 144.324C69.8384 144.323 69.7746 144.314 69.7002 144.296C69.6312 144.279 69.5463 144.257 69.4455 144.228C69.3713 144.201 69.2918 144.178 69.2067 144.161C69.1271 144.143 69.0419 144.134 68.9512 144.133C68.6953 144.129 68.5655 144.217 68.5621 144.398C68.56 144.505 68.6089 144.597 68.7088 144.673C68.8088 144.744 69.002 144.824 69.2883 144.914C69.6807 145.038 69.9683 145.2 70.1511 145.4C70.3341 145.595 70.4225 145.852 70.4164 146.172C70.4092 146.545 70.2595 146.844 69.9671 147.069C69.6802 147.289 69.2861 147.394 68.7848 147.386ZM73.0575 147.454C72.5615 147.446 72.1958 147.323 71.9603 147.085C71.7302 146.846 71.6198 146.485 71.6291 145.999L71.661 144.336L71.453 144.332C71.0904 144.327 70.9122 144.161 70.9185 143.836C70.9246 143.516 71.109 143.359 71.4716 143.365L71.6796 143.368L71.6961 142.504C71.6995 142.328 71.7556 142.185 71.8644 142.075C71.9785 141.964 72.1236 141.911 72.2996 141.914C72.4702 141.916 72.6052 141.972 72.7044 142.08C72.8038 142.183 72.8518 142.325 72.8483 142.506L72.8408 142.898C72.837 143.096 72.8019 143.258 72.7354 143.385L73.4953 143.397C73.858 143.402 74.0362 143.565 74.0301 143.885C74.0238 144.211 73.8394 144.37 73.4768 144.364L72.8129 144.354L72.7805 146.042C72.7774 146.202 72.7939 146.317 72.8299 146.386C72.866 146.451 72.9267 146.484 73.012 146.485C73.124 146.487 73.2068 146.48 73.2605 146.465C73.3195 146.445 73.3917 146.435 73.477 146.437C73.621 146.439 73.7352 146.468 73.8195 146.522C73.9039 146.572 73.9446 146.674 73.9416 146.828C73.9374 147.047 73.865 147.208 73.7243 147.313C73.5837 147.412 73.3614 147.459 73.0575 147.454ZM75.4615 147.492C75.0776 147.486 74.8891 147.302 74.896 146.939L74.9542 143.908C74.9612 143.54 75.1567 143.359 75.5407 143.365C75.7327 143.368 75.8705 143.413 75.9542 143.5C76.038 143.581 76.0781 143.715 76.0745 143.902C76.1739 143.727 76.3123 143.599 76.49 143.516C76.673 143.428 76.8845 143.387 77.1245 143.39C77.5831 143.398 77.8086 143.601 77.8009 144.001C77.798 144.15 77.7399 144.262 77.6265 144.334C77.5131 144.407 77.3284 144.442 77.0724 144.438C76.8218 144.434 76.624 144.455 76.4791 144.5C76.3343 144.541 76.2314 144.622 76.1704 144.743C76.1148 144.86 76.0849 145.03 76.0806 145.254L76.0479 146.958C76.0409 147.32 75.8455 147.499 75.4615 147.492ZM79.7865 147.561C79.216 147.552 78.7685 147.382 78.4441 147.052C78.1197 146.721 77.9644 146.193 77.9784 145.468C77.9924 144.738 78.1678 144.215 78.5045 143.9C78.8414 143.58 79.2951 143.425 79.8657 143.434C80.4363 143.443 80.8838 143.613 81.2082 143.943C81.5327 144.268 81.6879 144.796 81.6739 145.527C81.66 146.252 81.4846 146.775 81.1477 147.095C80.8109 147.415 80.3571 147.57 79.7865 147.561ZM79.805 146.601C79.9543 146.604 80.0801 146.576 80.1826 146.519C80.2851 146.457 80.3646 146.346 80.421 146.187C80.4827 146.028 80.5164 145.802 80.522 145.509C80.5277 145.215 80.5027 144.988 80.4471 144.827C80.3968 144.666 80.3216 144.556 80.2214 144.496C80.1213 144.43 79.9966 144.396 79.8473 144.394C79.7033 144.391 79.5774 144.421 79.4695 144.484C79.3671 144.541 79.285 144.649 79.2232 144.808C79.1668 144.967 79.1358 145.193 79.1302 145.486C79.1246 145.78 79.1469 146.007 79.1972 146.168C79.2528 146.328 79.3306 146.442 79.4307 146.507C79.5362 146.568 79.661 146.599 79.805 146.601ZM83.1399 147.614C82.756 147.608 82.5675 147.424 82.5744 147.061L82.6113 145.142C82.6211 144.63 82.7915 144.227 83.1225 143.934C83.4589 143.64 83.8963 143.498 84.4349 143.506C84.9735 143.515 85.4026 143.671 85.7222 143.975C86.0471 144.279 86.2046 144.687 86.1948 145.199L86.158 147.118C86.151 147.481 85.9556 147.659 85.5716 147.653C85.1877 147.647 84.9992 147.463 85.0061 147.1L85.0417 145.244C85.0465 144.994 84.9942 144.804 84.8846 144.674C84.7752 144.539 84.6192 144.47 84.4165 144.466C84.2139 144.463 84.0553 144.527 83.9408 144.659C83.8263 144.785 83.7667 144.973 83.7619 145.224L83.7263 147.08C83.7193 147.442 83.5239 147.62 83.1399 147.614ZM88.9257 147.706C88.3551 147.697 87.9076 147.527 87.5832 147.197C87.2588 146.866 87.1036 146.339 87.1175 145.613C87.1315 144.883 87.3069 144.36 87.6437 144.045C87.9805 143.725 88.4343 143.57 89.0049 143.579C89.5755 143.588 90.0229 143.758 90.3473 144.088C90.6718 144.414 90.8271 144.942 90.813 145.672C90.7991 146.397 90.6238 146.92 90.2869 147.24C89.95 147.56 89.4963 147.715 88.9257 147.706ZM88.9441 146.746C89.0934 146.749 89.2193 146.722 89.3218 146.664C89.4243 146.602 89.5038 146.491 89.5602 146.332C89.6219 146.173 89.6556 145.947 89.6612 145.654C89.6668 145.36 89.6418 145.133 89.5862 144.972C89.536 144.812 89.4608 144.701 89.3606 144.641C89.2605 144.575 89.1358 144.541 88.9864 144.539C88.8425 144.537 88.7165 144.567 88.6087 144.629C88.5062 144.686 88.4241 144.794 88.3624 144.953C88.306 145.112 88.275 145.338 88.2694 145.632C88.2637 145.925 88.2861 146.152 88.3363 146.313C88.3919 146.474 88.4698 146.587 88.5698 146.653C88.6754 146.713 88.8001 146.744 88.9441 146.746ZM92.2791 147.76C91.8951 147.753 91.7066 147.569 91.7136 147.207L91.7504 145.287C91.7608 144.743 91.8968 144.332 92.1581 144.053C92.4249 143.775 92.8009 143.639 93.2861 143.647C93.9474 143.658 94.3908 143.902 94.6163 144.38C94.86 143.909 95.3125 143.679 95.9738 143.69C96.4591 143.697 96.827 143.845 97.0775 144.131C97.3334 144.418 97.4561 144.833 97.4457 145.377L97.4089 147.297C97.4019 147.66 97.2065 147.838 96.8225 147.832C96.4386 147.826 96.2501 147.641 96.257 147.279L96.2926 145.423C96.2978 145.151 96.2562 144.956 96.1678 144.837C96.0795 144.713 95.9394 144.649 95.7474 144.646C95.3635 144.64 95.1666 144.893 95.1568 145.405L95.1218 147.229C95.1148 147.591 94.9247 147.77 94.5514 147.764C94.1781 147.758 93.995 147.573 94.0019 147.211L94.0369 145.387C94.0467 144.875 93.8596 144.616 93.4757 144.61C93.1024 144.604 92.9109 144.857 92.901 145.369L92.8655 147.225C92.8585 147.587 92.663 147.766 92.2791 147.76ZM98.9864 149.642C98.2452 149.631 97.8787 149.411 97.8868 148.985C97.8898 148.83 97.9345 148.727 98.0208 148.675C98.1071 148.628 98.2222 148.606 98.3662 148.608C98.5155 148.611 98.6459 148.623 98.7575 148.647C98.869 148.675 98.994 148.69 99.1327 148.693C99.2873 148.695 99.397 148.678 99.4617 148.642C99.5264 148.605 99.5597 148.537 99.5617 148.435C99.5629 148.371 99.5512 148.288 99.5264 148.187C99.5017 148.085 99.4513 147.935 99.3751 147.736C99.3042 147.538 99.2001 147.264 99.0627 146.915L98.1093 144.476C98.0789 144.395 98.0645 144.31 98.0663 144.219C98.0697 144.038 98.1389 143.908 98.2738 143.83C98.4087 143.747 98.5482 143.707 98.6922 143.709C98.8255 143.711 98.9315 143.747 99.0101 143.818C99.0942 143.883 99.1539 143.97 99.1892 144.077L100.139 146.684C100.35 146.277 100.49 145.927 100.56 145.635C100.635 145.343 100.669 145.074 100.663 144.828C100.661 144.674 100.652 144.548 100.638 144.452C100.63 144.35 100.623 144.286 100.618 144.26C100.6 144.089 100.653 143.961 100.777 143.878C100.907 143.789 101.057 143.747 101.228 143.749C101.382 143.752 101.499 143.788 101.578 143.859C101.662 143.924 101.721 144.016 101.757 144.134C101.782 144.219 101.796 144.318 101.799 144.43C101.807 144.537 101.811 144.625 101.81 144.695C101.804 144.972 101.772 145.254 101.714 145.541C101.66 145.828 101.583 146.099 101.482 146.354C101.386 146.603 101.268 146.82 101.125 147.004C101.104 147.03 101.063 147.083 101.002 147.162C100.947 147.241 100.879 147.32 100.798 147.399C100.716 147.472 100.633 147.524 100.547 147.555C100.636 147.652 100.697 147.779 100.732 147.934C100.766 148.094 100.781 148.26 100.778 148.431C100.771 148.793 100.624 149.087 100.337 149.312C100.055 149.542 99.605 149.652 98.9864 149.642Z" fill="black"/>
<line y1="-1" x2="66.2546" y2="-1" transform="matrix(0.999662 0.0259957 -0.0313763 0.999508 49.1389 161.278)" stroke="black" stroke-width="2"/>
<line y1="-1" x2="66.2546" y2="-1" transform="matrix(0.999662 0.0259957 -0.0313763 0.999508 49.1389 176.78)" stroke="black" stroke-width="2"/>
<line y1="-1" x2="66.2546" y2="-1" transform="matrix(0.999662 0.0259957 -0.0313763 0.999508 49.1389 192.281)" stroke="black" stroke-width="2"/>
<line y1="-1" x2="66.2546" y2="-1" transform="matrix(0.999662 0.0259957 -0.0313763 0.999508 49.1389 207.782)" stroke="black" stroke-width="2"/>
<line y1="-1" x2="66.2546" y2="-1" transform="matrix(0.999662 0.0259957 -0.0313763 0.999508 49.1389 223.283)" stroke="black" stroke-width="2"/>
<rect x="1.39568" y="0.451862" width="92.7883" height="115.835" rx="2" transform="matrix(0.907195 -0.42071 0.488485 0.872572 96.3567 198.357)" fill="#D9D9D9" stroke="black" stroke-width="2"/>
<path d="M130.746 198.933C130.219 199.167 129.749 199.26 129.336 199.211C128.928 199.159 128.557 198.981 128.224 198.676C127.894 198.363 127.581 197.932 127.287 197.383C126.993 196.834 126.81 196.34 126.738 195.901C126.668 195.456 126.734 195.066 126.936 194.732C127.143 194.397 127.51 194.112 128.037 193.878C128.227 193.793 128.421 193.727 128.62 193.68C128.823 193.63 129.005 193.622 129.168 193.654C129.335 193.685 129.461 193.78 129.547 193.939C129.61 194.057 129.619 194.175 129.574 194.294C129.529 194.412 129.408 194.515 129.213 194.602C129.106 194.649 128.98 194.691 128.836 194.726C128.689 194.756 128.527 194.81 128.352 194.888C128.01 195.04 127.855 195.275 127.886 195.592C127.919 195.902 128.086 196.337 128.385 196.896C128.685 197.454 128.97 197.824 129.243 198.006C129.513 198.182 129.787 198.209 130.065 198.085C130.651 197.825 130.816 197.458 130.562 196.984C130.447 196.768 130.401 196.605 130.427 196.495L129.918 196.729C129.77 196.801 129.637 196.825 129.522 196.801C129.411 196.775 129.315 196.686 129.235 196.536C129.154 196.386 129.137 196.263 129.182 196.167C129.232 196.069 129.333 195.987 129.484 195.92L130.26 195.575C130.431 195.499 130.57 195.464 130.675 195.47C130.778 195.47 130.876 195.529 130.968 195.644C131.063 195.754 131.177 195.932 131.31 196.181C131.544 196.618 131.695 197.007 131.764 197.348C131.832 197.69 131.788 197.991 131.632 198.253C131.481 198.511 131.185 198.738 130.746 198.933ZM134.978 197.063C134.49 197.28 134.066 197.373 133.704 197.341C133.348 197.308 133.038 197.181 132.775 196.96C132.517 196.738 132.294 196.451 132.105 196.099C131.758 195.451 131.658 194.92 131.805 194.506C131.949 194.088 132.272 193.767 132.775 193.544C133.078 193.409 133.372 193.339 133.66 193.334C133.947 193.329 134.205 193.388 134.435 193.513C134.662 193.633 134.845 193.822 134.984 194.08C135.386 194.831 135.031 195.454 133.918 195.947L133.494 196.136C133.611 196.264 133.736 196.351 133.869 196.397C134.004 196.435 134.187 196.404 134.416 196.302C134.543 196.245 134.642 196.193 134.712 196.144C134.783 196.095 134.849 196.049 134.909 196.004C134.975 195.958 135.054 195.914 135.147 195.873C135.279 195.814 135.396 195.791 135.499 195.803C135.6 195.811 135.687 195.883 135.76 196.019C135.863 196.211 135.852 196.394 135.727 196.566C135.604 196.731 135.354 196.896 134.978 197.063ZM133.163 195.638C133.174 195.569 133.201 195.516 133.242 195.481C133.281 195.44 133.351 195.397 133.454 195.352C133.742 195.224 133.926 195.11 134.005 195.011C134.087 194.905 134.091 194.781 134.015 194.64C133.92 194.462 133.796 194.349 133.643 194.3C133.487 194.247 133.332 194.255 133.175 194.325C132.995 194.405 132.892 194.54 132.868 194.731C132.843 194.923 132.942 195.225 133.163 195.638ZM138.573 195.468C138.051 195.699 137.562 195.739 137.106 195.587C136.649 195.435 136.25 195.04 135.908 194.402C135.564 193.758 135.467 193.229 135.619 192.813C135.768 192.392 136.104 192.066 136.626 191.834C137.148 191.602 137.637 191.562 138.093 191.714C138.547 191.862 138.946 192.257 139.291 192.9C139.633 193.539 139.729 194.068 139.58 194.489C139.431 194.909 139.095 195.236 138.573 195.468ZM138.12 194.623C138.257 194.562 138.358 194.485 138.423 194.392C138.485 194.295 138.503 194.165 138.477 194.002C138.455 193.838 138.375 193.626 138.236 193.368C138.098 193.11 137.964 192.922 137.835 192.805C137.711 192.686 137.589 192.621 137.468 192.611C137.345 192.596 137.215 192.618 137.079 192.679C136.947 192.738 136.847 192.817 136.78 192.916C136.715 193.009 136.693 193.138 136.715 193.303C136.742 193.465 136.824 193.675 136.963 193.934C137.101 194.192 137.232 194.38 137.356 194.5C137.486 194.617 137.612 194.683 137.735 194.698C137.86 194.706 137.988 194.681 138.12 194.623ZM144.507 193.296C144.72 193.695 144.685 194.079 144.4 194.45C144.115 194.82 143.609 195.167 142.882 195.49C142.506 195.657 142.205 195.732 141.979 195.716C141.761 195.703 141.6 195.6 141.497 195.407C141.424 195.271 141.414 195.162 141.467 195.081C141.522 195.004 141.616 194.936 141.747 194.878C141.845 194.834 141.931 194.802 142.004 194.781C142.08 194.765 142.159 194.744 142.242 194.719C142.333 194.696 142.439 194.658 142.561 194.604C142.947 194.432 143.207 194.282 143.343 194.152C143.484 194.02 143.508 193.867 143.415 193.693C143.337 193.548 143.213 193.457 143.043 193.422C142.873 193.387 142.695 193.411 142.51 193.493C141.387 193.992 140.518 193.666 139.902 192.516C139.587 191.929 139.496 191.432 139.628 191.024C139.76 190.617 140.107 190.289 140.668 190.04C141.039 189.875 141.379 189.8 141.689 189.813C141.58 189.339 141.715 189.017 142.096 188.848C142.282 188.766 142.448 188.75 142.596 188.8C142.746 188.844 142.868 188.953 142.961 189.126C143.047 189.286 143.06 189.423 143 189.537C142.94 189.65 142.802 189.755 142.588 189.85C142.495 189.891 142.413 189.936 142.343 189.985C142.704 190.173 143.019 190.519 143.288 191.021C143.456 191.336 143.547 191.618 143.56 191.868C143.578 192.115 143.497 192.364 143.316 192.613C143.605 192.589 143.846 192.644 144.04 192.779C144.235 192.908 144.391 193.08 144.507 193.296ZM140.956 192.048C141.27 192.634 141.64 192.834 142.064 192.645C142.489 192.457 142.544 192.069 142.23 191.482C142.066 191.177 141.893 190.978 141.71 190.885C141.532 190.789 141.336 190.789 141.121 190.885C140.911 190.978 140.79 191.119 140.758 191.307C140.727 191.496 140.792 191.742 140.956 192.048ZM145.892 192.218C145.541 192.374 145.28 192.293 145.109 191.974L143.679 189.305C143.505 188.981 143.594 188.741 143.945 188.585C144.121 188.507 144.268 188.488 144.386 188.529C144.502 188.564 144.604 188.664 144.692 188.829C144.697 188.635 144.76 188.465 144.881 188.318C145.004 188.164 145.175 188.039 145.395 187.941C145.815 187.755 146.119 187.838 146.308 188.19C146.378 188.322 146.38 188.443 146.312 188.554C146.245 188.665 146.094 188.773 145.86 188.877C145.631 188.979 145.461 189.08 145.352 189.181C145.241 189.277 145.187 189.391 145.191 189.523C145.197 189.648 145.254 189.809 145.359 190.006L146.163 191.506C146.334 191.825 146.244 192.062 145.892 192.218ZM149.646 190.552C149.158 190.769 148.72 190.83 148.331 190.735C147.939 190.636 147.65 190.412 147.464 190.065C147.245 189.657 147.265 189.282 147.523 188.941C147.786 188.597 148.279 188.3 149.003 188.048C148.853 187.848 148.704 187.734 148.556 187.706C148.406 187.674 148.255 187.692 148.104 187.759C147.982 187.813 147.883 187.865 147.808 187.916C147.735 187.96 147.668 188.005 147.607 188.049C147.546 188.093 147.467 188.137 147.37 188.181C147.238 188.239 147.122 188.265 147.021 188.257C146.918 188.245 146.829 188.171 146.757 188.034C146.653 187.842 146.663 187.663 146.786 187.498C146.912 187.326 147.162 187.157 147.538 186.99C148.134 186.726 148.663 186.694 149.127 186.895C149.589 187.091 149.966 187.461 150.257 188.006C150.595 188.635 150.724 189.153 150.646 189.559C150.57 189.959 150.237 190.29 149.646 190.552ZM148.518 189.597C148.662 189.865 148.921 189.915 149.297 189.748C149.419 189.694 149.503 189.631 149.549 189.558C149.594 189.485 149.598 189.379 149.559 189.24C149.525 189.098 149.448 188.897 149.327 188.637C149.315 188.671 149.292 188.702 149.258 188.728C149.224 188.755 149.188 188.777 149.148 188.794C148.826 188.937 148.618 189.068 148.524 189.185C148.432 189.295 148.43 189.433 148.518 189.597ZM153.458 190.795C153.102 190.953 152.825 190.849 152.629 190.483L151.142 187.709C150.8 187.07 150.691 186.529 150.816 186.084C150.94 185.64 151.266 185.301 151.793 185.067C152.33 184.828 152.84 184.805 153.323 184.997C153.812 185.187 154.226 185.599 154.566 186.233C154.792 186.655 154.91 187.021 154.919 187.331C154.925 187.636 154.846 187.895 154.682 188.107C154.518 188.32 154.289 188.491 153.997 188.621C153.743 188.734 153.514 188.791 153.31 188.795C153.112 188.796 152.927 188.744 152.756 188.64C152.841 188.719 152.914 188.799 152.976 188.882C153.044 188.962 153.111 189.06 153.179 189.176C153.252 189.289 153.337 189.437 153.435 189.62L153.654 190.028C153.85 190.394 153.785 190.65 153.458 190.795ZM153.365 187.881C153.57 187.79 153.692 187.652 153.731 187.466C153.773 187.273 153.691 186.984 153.484 186.599C153.278 186.214 153.08 185.98 152.89 185.896C152.702 185.805 152.506 185.805 152.301 185.896C152.096 185.987 151.972 186.129 151.931 186.322C151.891 186.508 151.975 186.793 152.181 187.178C152.387 187.563 152.584 187.801 152.772 187.892C152.962 187.976 153.16 187.972 153.365 187.881ZM157.144 186.64C157.313 186.954 157.226 187.187 156.885 187.339C156.719 187.412 156.565 187.431 156.425 187.395C156.285 187.358 156.173 187.262 156.09 187.108L153.732 182.707C153.535 182.34 153.615 182.078 153.972 181.92C154.323 181.764 154.597 181.869 154.793 182.235L155.197 182.989C155.267 183.12 155.321 183.254 155.357 183.389C155.393 183.524 155.412 183.672 155.414 183.834C155.444 183.698 155.516 183.579 155.63 183.476C155.744 183.373 155.892 183.282 156.072 183.202C156.394 183.059 156.708 182.995 157.012 183.011C157.317 183.027 157.594 183.116 157.844 183.278C158.097 183.433 158.303 183.661 158.464 183.962L159.37 185.652C159.538 185.966 159.452 186.199 159.11 186.351C158.944 186.425 158.791 186.443 158.651 186.407C158.51 186.37 158.399 186.274 158.316 186.12L157.433 184.472C157.314 184.251 157.171 184.108 157.004 184.043C156.841 183.976 156.667 183.984 156.481 184.066C156.301 184.146 156.19 184.268 156.151 184.431C156.109 184.589 156.146 184.776 156.261 184.992L157.144 186.64ZM161.926 187.036C161.248 187.337 160.808 187.3 160.607 186.924C160.534 186.788 160.524 186.679 160.577 186.598C160.632 186.521 160.726 186.453 160.857 186.395C160.994 186.334 161.119 186.29 161.231 186.264C161.346 186.241 161.467 186.202 161.594 186.146C161.736 186.083 161.827 186.022 161.868 185.963C161.909 185.905 161.905 185.831 161.858 185.741C161.827 185.685 161.776 185.618 161.704 185.539C161.632 185.461 161.513 185.351 161.346 185.21C161.185 185.067 160.957 184.872 160.661 184.625L158.603 182.898C158.536 182.84 158.481 182.772 158.438 182.692C158.353 182.532 158.352 182.39 158.436 182.266C158.518 182.136 158.625 182.042 158.757 181.984C158.879 181.93 158.993 181.917 159.099 181.945C159.207 181.967 159.303 182.017 159.388 182.096L161.525 183.971C161.517 183.527 161.473 183.163 161.393 182.879C161.318 182.593 161.218 182.344 161.093 182.132C161.015 181.998 160.946 181.892 160.886 181.814C160.829 181.73 160.791 181.676 160.774 181.655C160.674 181.514 160.66 181.38 160.732 181.255C160.806 181.124 160.921 181.023 161.077 180.954C161.219 180.891 161.343 180.874 161.449 180.902C161.557 180.924 161.656 180.979 161.745 181.067C161.81 181.131 161.871 181.212 161.929 181.308C161.989 181.397 162.035 181.473 162.068 181.534C162.199 181.778 162.308 182.038 162.395 182.313C162.487 182.586 162.549 182.854 162.582 183.119C162.617 183.376 162.615 183.615 162.577 183.836C162.57 183.868 162.558 183.931 162.542 184.025C162.531 184.117 162.508 184.215 162.472 184.318C162.434 184.416 162.384 184.497 162.321 184.559C162.449 184.607 162.567 184.691 162.674 184.812C162.784 184.938 162.879 185.076 162.959 185.226C163.13 185.545 163.14 185.863 162.99 186.18C162.847 186.499 162.492 186.785 161.926 187.036Z" fill="black"/>
<line y1="-1" x2="65.0745" y2="-1" transform="matrix(0.920066 -0.396974 0.460883 0.884872 125.401 219.08)" stroke="black" stroke-width="2"/>
<line y1="-1" x2="65.0745" y2="-1" transform="matrix(0.920066 -0.396974 0.460883 0.884872 133.133 232.892)" stroke="black" stroke-width="2"/>
<line y1="-1" x2="65.0745" y2="-1" transform="matrix(0.920066 -0.396974 0.460883 0.884872 140.865 246.703)" stroke="black" stroke-width="2"/>
<line y1="-1" x2="65.0745" y2="-1" transform="matrix(0.920066 -0.396974 0.460883 0.884872 148.597 260.515)" stroke="black" stroke-width="2"/>
<line y1="-1" x2="65.0745" y2="-1" transform="matrix(0.920066 -0.396974 0.460883 0.884872 156.329 274.326)" stroke="black" stroke-width="2"/>
</svg>
