<svg width="268" height="228" viewBox="0 0 268 228" fill="none" xmlns="http://www.w3.org/2000/svg">
<rect width="268" height="225.267" rx="12" fill="#D9D9D9"/>
<path d="M27.1915 147.203L65.0127 95.8431L117.147 122.021L163.429 70.2684L211.531 84.6899" stroke="#FF0101" stroke-width="2"/>
<path d="M27.0251 182.801L64.8463 131.441L116.98 157.619L163.263 105.867L211.365 120.288" stroke="black" stroke-width="2"/>
<path d="M20.2689 35.3359V200.973H247.731" stroke="black" stroke-width="3"/>
<path d="M221.336 217.096C221.136 217.096 220.932 217.052 220.724 216.964C220.524 216.868 220.424 216.716 220.424 216.508V210.892C220.424 210.636 220.488 210.46 220.616 210.364C220.744 210.268 220.848 210.208 220.928 210.184H218.612C218.42 210.184 218.276 210.1 218.18 209.932C218.092 209.756 218.048 209.576 218.048 209.392C218.048 209.192 218.096 209.012 218.192 208.852C218.288 208.684 218.428 208.6 218.612 208.6H223.976C224.16 208.6 224.3 208.684 224.396 208.852C224.492 209.012 224.54 209.192 224.54 209.392C224.54 209.576 224.492 209.756 224.396 209.932C224.308 210.1 224.168 210.184 223.976 210.184H222.152V216.508C222.152 216.708 222.068 216.856 221.9 216.952C221.74 217.048 221.552 217.096 221.336 217.096ZM226.188 209.872C225.892 209.872 225.644 209.776 225.444 209.584C225.244 209.392 225.144 209.156 225.144 208.876C225.144 208.58 225.244 208.336 225.444 208.144C225.644 207.952 225.892 207.856 226.188 207.856C226.492 207.856 226.74 207.952 226.932 208.144C227.132 208.336 227.232 208.58 227.232 208.876C227.232 209.156 227.132 209.392 226.932 209.584C226.74 209.776 226.492 209.872 226.188 209.872ZM227.052 216.292C227.052 216.828 226.772 217.096 226.212 217.096C225.94 217.096 225.724 217.032 225.564 216.904C225.404 216.768 225.324 216.564 225.324 216.292V211.72C225.324 211.464 225.388 211.264 225.516 211.12C225.652 210.976 225.876 210.904 226.188 210.904C226.5 210.904 226.72 210.976 226.848 211.12C226.984 211.264 227.052 211.464 227.052 211.72V216.292ZM229.439 217.096C228.863 217.096 228.575 216.824 228.575 216.28V213.4C228.575 212.584 228.767 211.964 229.151 211.54C229.543 211.116 230.103 210.904 230.831 210.904C231.823 210.904 232.495 211.26 232.847 211.972C233.199 211.26 233.871 210.904 234.863 210.904C235.591 210.904 236.147 211.116 236.531 211.54C236.923 211.964 237.119 212.584 237.119 213.4V216.28C237.119 216.824 236.831 217.096 236.255 217.096C235.679 217.096 235.391 216.824 235.391 216.28V213.496C235.391 213.088 235.323 212.796 235.187 212.62C235.051 212.436 234.839 212.344 234.551 212.344C233.975 212.344 233.687 212.728 233.687 213.496V216.232C233.687 216.776 233.407 217.048 232.847 217.048C232.287 217.048 232.007 216.776 232.007 216.232V213.496C232.007 212.728 231.719 212.344 231.143 212.344C230.583 212.344 230.303 212.728 230.303 213.496V216.28C230.303 216.824 230.015 217.096 229.439 217.096ZM241.631 217.096C240.831 217.096 240.203 216.964 239.747 216.7C239.299 216.436 238.979 216.072 238.787 215.608C238.603 215.144 238.511 214.612 238.511 214.012C238.511 212.908 238.755 212.116 239.243 211.636C239.731 211.148 240.387 210.904 241.211 210.904C241.707 210.904 242.147 210.988 242.531 211.156C242.915 211.324 243.215 211.564 243.431 211.876C243.647 212.18 243.755 212.552 243.755 212.992C243.755 214.272 242.843 214.912 241.019 214.912H240.323C240.387 215.16 240.491 215.356 240.635 215.5C240.787 215.636 241.051 215.704 241.427 215.704C241.635 215.704 241.803 215.692 241.931 215.668C242.059 215.644 242.179 215.62 242.291 215.596C242.411 215.572 242.547 215.56 242.699 215.56C242.915 215.56 243.087 215.6 243.215 215.68C243.343 215.752 243.407 215.904 243.407 216.136C243.407 216.464 243.263 216.708 242.975 216.868C242.695 217.02 242.247 217.096 241.631 217.096ZM240.239 214.024C240.303 213.936 240.375 213.88 240.455 213.856C240.535 213.824 240.659 213.808 240.827 213.808C241.299 213.808 241.623 213.764 241.799 213.676C241.983 213.58 242.075 213.412 242.075 213.172C242.075 212.868 241.991 212.636 241.823 212.476C241.655 212.308 241.443 212.224 241.187 212.224C240.891 212.224 240.659 212.348 240.491 212.596C240.323 212.844 240.239 213.32 240.239 214.024ZM250.256 218.8C250.12 218.856 249.98 218.872 249.836 218.848C249.7 218.832 249.564 218.772 249.428 218.668C249.252 218.532 249.072 218.356 248.888 218.14C248.704 217.924 248.544 217.68 248.408 217.408C248.056 216.72 247.812 216.008 247.676 215.272C247.548 214.536 247.484 213.792 247.484 213.04C247.484 212.288 247.548 211.552 247.676 210.832C247.812 210.112 248.056 209.408 248.408 208.72C248.544 208.448 248.704 208.204 248.888 207.988C249.072 207.772 249.252 207.596 249.428 207.46C249.564 207.348 249.7 207.284 249.836 207.268C249.98 207.252 250.12 207.272 250.256 207.328C250.824 207.544 250.952 207.928 250.64 208.48C250.536 208.656 250.412 208.836 250.268 209.02C250.124 209.196 250.004 209.388 249.908 209.596C249.66 210.124 249.472 210.688 249.344 211.288C249.216 211.888 249.152 212.472 249.152 213.04C249.152 213.6 249.216 214.192 249.344 214.816C249.472 215.432 249.66 216.004 249.908 216.532C250.004 216.732 250.124 216.92 250.268 217.096C250.412 217.28 250.536 217.464 250.64 217.648C250.952 218.2 250.824 218.584 250.256 218.8ZM253.423 216.292C253.423 216.828 253.143 217.096 252.583 217.096C252.311 217.096 252.095 217.028 251.935 216.892C251.775 216.756 251.695 216.556 251.695 216.292V208.792C251.695 208.168 251.987 207.856 252.571 207.856C253.147 207.856 253.435 208.168 253.435 208.792V210.076C253.435 210.3 253.411 210.516 253.363 210.724C253.315 210.932 253.235 211.148 253.123 211.372C253.259 211.204 253.439 211.084 253.663 211.012C253.887 210.94 254.147 210.904 254.443 210.904C254.971 210.904 255.431 211.008 255.823 211.216C256.215 211.424 256.519 211.716 256.735 212.092C256.959 212.46 257.071 212.9 257.071 213.412V216.292C257.071 216.828 256.791 217.096 256.231 217.096C255.959 217.096 255.743 217.028 255.583 216.892C255.423 216.756 255.343 216.556 255.343 216.292V213.484C255.343 213.108 255.255 212.824 255.079 212.632C254.911 212.44 254.675 212.344 254.371 212.344C254.075 212.344 253.843 212.444 253.675 212.644C253.507 212.836 253.423 213.116 253.423 213.484V216.292ZM257.88 218.8C257.312 218.584 257.184 218.2 257.496 217.648C257.6 217.464 257.724 217.28 257.868 217.096C258.012 216.92 258.132 216.732 258.228 216.532C258.484 216.004 258.672 215.432 258.792 214.816C258.92 214.192 258.984 213.6 258.984 213.04C258.984 212.472 258.92 211.888 258.792 211.288C258.672 210.688 258.484 210.124 258.228 209.596C258.132 209.388 258.012 209.196 257.868 209.02C257.724 208.836 257.6 208.656 257.496 208.48C257.184 207.928 257.312 207.544 257.88 207.328C258.016 207.272 258.152 207.252 258.288 207.268C258.432 207.284 258.572 207.348 258.708 207.46C258.884 207.596 259.064 207.772 259.248 207.988C259.432 208.204 259.592 208.448 259.728 208.72C260.08 209.408 260.32 210.112 260.448 210.832C260.584 211.552 260.652 212.288 260.652 213.04C260.652 213.792 260.584 214.536 260.448 215.272C260.32 216.008 260.08 216.72 259.728 217.408C259.592 217.68 259.432 217.924 259.248 218.14C259.064 218.356 258.884 218.532 258.708 218.668C258.572 218.772 258.432 218.832 258.288 218.848C258.152 218.872 258.016 218.856 257.88 218.8Z" fill="black"/>
<path d="M7.532 26.292C7.532 26.828 7.252 27.096 6.692 27.096C6.42 27.096 6.204 27.028 6.044 26.892C5.884 26.756 5.804 26.556 5.804 26.292V21.168C5.804 20.272 6.04 19.6 6.512 19.152C6.984 18.696 7.776 18.468 8.888 18.468C9.712 18.468 10.356 18.688 10.82 19.128C11.292 19.568 11.528 20.276 11.528 21.252C11.528 22.1 11.304 22.748 10.856 23.196C10.416 23.644 9.792 23.868 8.984 23.868C8.528 23.868 8.196 23.904 7.988 23.976C7.788 24.04 7.66 24.164 7.604 24.348C7.556 24.524 7.532 24.784 7.532 25.128V26.292ZM7.424 22.824C7.52 22.744 7.612 22.676 7.7 22.62C7.788 22.556 7.904 22.508 8.048 22.476C8.2 22.436 8.4 22.416 8.648 22.416C8.992 22.416 9.264 22.388 9.464 22.332C9.664 22.268 9.804 22.152 9.884 21.984C9.972 21.816 10.016 21.572 10.016 21.252C10.016 20.828 9.964 20.52 9.86 20.328C9.764 20.128 9.624 20 9.44 19.944C9.264 19.88 9.048 19.848 8.792 19.848C8.328 19.848 8 19.932 7.808 20.1C7.624 20.268 7.532 20.56 7.532 20.976C7.532 21.272 7.524 21.596 7.508 21.948C7.492 22.3 7.464 22.592 7.424 22.824ZM14.8539 27.096C13.9979 27.096 13.3219 26.852 12.8259 26.364C12.3299 25.876 12.0819 25.088 12.0819 24C12.0819 22.904 12.3299 22.116 12.8259 21.636C13.3219 21.148 13.9979 20.904 14.8539 20.904C15.7099 20.904 16.3859 21.148 16.8819 21.636C17.3779 22.116 17.6259 22.904 17.6259 24C17.6259 25.088 17.3779 25.876 16.8819 26.364C16.3859 26.852 15.7099 27.096 14.8539 27.096ZM14.8539 25.656C15.0779 25.656 15.2659 25.612 15.4179 25.524C15.5699 25.428 15.6859 25.26 15.7659 25.02C15.8539 24.78 15.8979 24.44 15.8979 24C15.8979 23.56 15.8539 23.22 15.7659 22.98C15.6859 22.74 15.5699 22.576 15.4179 22.488C15.2659 22.392 15.0779 22.344 14.8539 22.344C14.6379 22.344 14.4499 22.392 14.2899 22.488C14.1379 22.576 14.0179 22.74 13.9299 22.98C13.8499 23.22 13.8099 23.56 13.8099 24C13.8099 24.44 13.8499 24.78 13.9299 25.02C14.0179 25.26 14.1379 25.428 14.2899 25.524C14.4499 25.612 14.6379 25.656 14.8539 25.656ZM21.0977 27.096C20.7617 27.096 20.4977 27 20.3057 26.808C20.1137 26.616 19.9377 26.292 19.7777 25.836L18.5777 22.2C18.5137 21.984 18.4817 21.828 18.4817 21.732C18.4817 21.5 18.5657 21.3 18.7337 21.132C18.9097 20.956 19.1257 20.868 19.3817 20.868C19.5817 20.868 19.7497 20.916 19.8857 21.012C20.0297 21.108 20.1257 21.24 20.1737 21.408L21.3137 25.2C21.6257 24.696 21.8457 24.232 21.9737 23.808C22.1097 23.384 22.1777 22.924 22.1777 22.428L22.1537 21.6C22.1537 21.392 22.2377 21.22 22.4057 21.084C22.5737 20.94 22.7817 20.868 23.0297 20.868C23.1737 20.868 23.3017 20.92 23.4137 21.024C23.5257 21.128 23.6337 21.308 23.7377 21.564C23.8097 21.74 23.8897 21.968 23.9777 22.248C24.0737 22.528 24.1897 22.904 24.3257 23.376C24.4697 23.84 24.6457 24.448 24.8537 25.2C25.1337 24.888 25.3537 24.504 25.5137 24.048C25.6737 23.584 25.7337 23.044 25.6937 22.428L25.6457 21.6C25.6377 21.392 25.7217 21.22 25.8977 21.084C26.0817 20.94 26.3017 20.868 26.5577 20.868C27.0377 20.868 27.3137 21.096 27.3857 21.552C27.4017 21.656 27.4137 21.776 27.4217 21.912C27.4297 22.048 27.4337 22.184 27.4337 22.32C27.4337 22.904 27.3417 23.492 27.1577 24.084C26.9817 24.668 26.7337 25.208 26.4137 25.704C26.0777 26.224 25.7857 26.588 25.5377 26.796C25.2977 26.996 25.0337 27.096 24.7457 27.096C24.5537 27.096 24.3577 26.988 24.1577 26.772C23.9657 26.548 23.7857 26.244 23.6177 25.86C23.4497 25.476 23.3137 25.044 23.2097 24.564C23.1297 24.812 23.0017 25.084 22.8257 25.38C22.6577 25.668 22.4657 25.944 22.2497 26.208C22.0337 26.472 21.8217 26.688 21.6137 26.856C21.4137 27.016 21.2417 27.096 21.0977 27.096ZM31.5256 27.096C30.7256 27.096 30.0976 26.964 29.6416 26.7C29.1936 26.436 28.8736 26.072 28.6816 25.608C28.4976 25.144 28.4056 24.612 28.4056 24.012C28.4056 22.908 28.6496 22.116 29.1376 21.636C29.6256 21.148 30.2816 20.904 31.1056 20.904C31.6016 20.904 32.0416 20.988 32.4256 21.156C32.8096 21.324 33.1096 21.564 33.3256 21.876C33.5416 22.18 33.6496 22.552 33.6496 22.992C33.6496 24.272 32.7376 24.912 30.9136 24.912H30.2176C30.2816 25.16 30.3856 25.356 30.5296 25.5C30.6816 25.636 30.9456 25.704 31.3216 25.704C31.5296 25.704 31.6976 25.692 31.8256 25.668C31.9536 25.644 32.0736 25.62 32.1856 25.596C32.3056 25.572 32.4416 25.56 32.5936 25.56C32.8096 25.56 32.9816 25.6 33.1096 25.68C33.2376 25.752 33.3016 25.904 33.3016 26.136C33.3016 26.464 33.1576 26.708 32.8696 26.868C32.5896 27.02 32.1416 27.096 31.5256 27.096ZM30.1336 24.024C30.1976 23.936 30.2696 23.88 30.3496 23.856C30.4296 23.824 30.5536 23.808 30.7216 23.808C31.1936 23.808 31.5176 23.764 31.6936 23.676C31.8776 23.58 31.9696 23.412 31.9696 23.172C31.9696 22.868 31.8856 22.636 31.7176 22.476C31.5496 22.308 31.3376 22.224 31.0816 22.224C30.7856 22.224 30.5536 22.348 30.3856 22.596C30.2176 22.844 30.1336 23.32 30.1336 24.024ZM35.8451 27.096C35.2691 27.096 34.9811 26.824 34.9811 26.28V21.732C34.9811 21.18 35.2691 20.904 35.8451 20.904C36.1331 20.904 36.3411 20.968 36.4691 21.096C36.5971 21.216 36.6611 21.416 36.6611 21.696C36.8051 21.432 37.0091 21.236 37.2731 21.108C37.5451 20.972 37.8611 20.904 38.2211 20.904C38.9091 20.904 39.2531 21.204 39.2531 21.804C39.2531 22.028 39.1691 22.196 39.0011 22.308C38.8331 22.42 38.5571 22.476 38.1731 22.476C37.7971 22.476 37.5011 22.512 37.2851 22.584C37.0691 22.648 36.9171 22.772 36.8291 22.956C36.7491 23.132 36.7091 23.388 36.7091 23.724V26.28C36.7091 26.824 36.4211 27.096 35.8451 27.096ZM43.9302 27.096C43.6182 27.096 43.3942 27.012 43.2582 26.844C43.1302 26.676 43.0662 26.448 43.0662 26.16V18.792C43.0662 18.504 43.1302 18.276 43.2582 18.108C43.3942 17.94 43.6182 17.856 43.9302 17.856C44.2422 17.856 44.4622 17.94 44.5902 18.108C44.7262 18.276 44.7942 18.504 44.7942 18.792V23.256C45.2182 23 45.5942 22.712 45.9222 22.392C46.2502 22.064 46.4742 21.752 46.5942 21.456C46.7062 21.184 46.8662 21 47.0742 20.904C47.2822 20.808 47.5102 20.82 47.7582 20.94C48.1022 21.108 48.2622 21.364 48.2382 21.708C48.2302 21.996 48.0982 22.32 47.8422 22.68C47.5942 23.032 47.2862 23.336 46.9182 23.592C47.3822 23.752 47.7542 24.044 48.0342 24.468C48.3222 24.884 48.4662 25.488 48.4662 26.28C48.4662 26.824 48.1822 27.096 47.6142 27.096C47.0302 27.096 46.7382 26.824 46.7382 26.28C46.7382 25.696 46.6462 25.268 46.4622 24.996C46.2782 24.724 46.0342 24.588 45.7302 24.588C45.4502 24.588 45.2222 24.692 45.0462 24.9C44.8782 25.108 44.7942 25.468 44.7942 25.98C44.7942 26.444 44.7262 26.748 44.5902 26.892C44.4542 27.028 44.2342 27.096 43.9302 27.096ZM56.0126 27.096C55.6686 27.096 55.3726 26.996 55.1246 26.796C54.8766 26.596 54.6966 26.256 54.5846 25.776L54.1046 23.808C54.0086 24.168 53.8966 24.52 53.7686 24.864C53.6406 25.2 53.5166 25.5 53.3966 25.764C53.1966 26.236 52.9766 26.576 52.7366 26.784C52.5046 26.992 52.2366 27.096 51.9326 27.096C51.5886 27.096 51.2966 26.98 51.0566 26.748C50.8246 26.516 50.6526 26.192 50.5406 25.776L48.9566 19.752C48.8286 19.344 48.8486 19.028 49.0166 18.804C49.1926 18.58 49.4246 18.468 49.7126 18.468C49.9766 18.468 50.1806 18.556 50.3246 18.732C50.4766 18.908 50.6046 19.208 50.7086 19.632L52.1006 25.32L52.9286 22.704C53.0886 22.208 53.1886 21.816 53.2286 21.528C53.2766 21.232 53.3006 21.004 53.3006 20.844C53.3006 20.588 53.2726 20.372 53.2166 20.196C53.1686 20.02 53.1246 19.856 53.0846 19.704C52.9886 19.288 53.0166 19 53.1686 18.84C53.3286 18.68 53.5326 18.6 53.7806 18.6C54.0366 18.6 54.2446 18.68 54.4046 18.84C54.5726 18.992 54.6966 19.256 54.7766 19.632L56.0846 25.308C56.4686 24.188 56.7406 23.284 56.9006 22.596C57.0686 21.908 57.1526 21.384 57.1526 21.024C57.1526 20.656 57.1366 20.372 57.1046 20.172C57.0726 19.972 57.0366 19.808 56.9966 19.68C56.9646 19.544 56.9486 19.408 56.9486 19.272C56.9486 19.072 57.0206 18.888 57.1646 18.72C57.3166 18.552 57.5646 18.468 57.9086 18.468C58.1726 18.468 58.3766 18.564 58.5206 18.756C58.6646 18.948 58.7606 19.184 58.8086 19.464C58.8646 19.744 58.8926 20.016 58.8926 20.28C58.8926 20.656 58.8486 21.088 58.7606 21.576C58.6726 22.064 58.5566 22.568 58.4126 23.088C58.2766 23.6 58.1246 24.092 57.9566 24.564C57.7886 25.036 57.6206 25.444 57.4526 25.788C57.2286 26.26 57.0046 26.596 56.7806 26.796C56.5566 26.996 56.3006 27.096 56.0126 27.096ZM62.0321 26.292C62.0321 26.828 61.7521 27.096 61.1921 27.096C60.9201 27.096 60.7041 27.028 60.5441 26.892C60.3841 26.756 60.3041 26.556 60.3041 26.292V18.792C60.3041 18.168 60.5961 17.856 61.1801 17.856C61.7561 17.856 62.0441 18.168 62.0441 18.792V20.076C62.0441 20.3 62.0201 20.516 61.9721 20.724C61.9241 20.932 61.8441 21.148 61.7321 21.372C61.8681 21.204 62.0481 21.084 62.2721 21.012C62.4961 20.94 62.7561 20.904 63.0521 20.904C63.5801 20.904 64.0401 21.008 64.4321 21.216C64.8241 21.424 65.1281 21.716 65.3441 22.092C65.5681 22.46 65.6801 22.9 65.6801 23.412V26.292C65.6801 26.828 65.4001 27.096 64.8401 27.096C64.5681 27.096 64.3521 27.028 64.1921 26.892C64.0321 26.756 63.9521 26.556 63.9521 26.292V23.484C63.9521 23.108 63.8641 22.824 63.6881 22.632C63.5201 22.44 63.2841 22.344 62.9801 22.344C62.6841 22.344 62.4521 22.444 62.2841 22.644C62.1161 22.836 62.0321 23.116 62.0321 23.484V26.292Z" fill="black"/>
</svg>
